<?xml version="1.0" encoding="UTF-8" standalone="no"?>
<!-- Created with Inkscape (http://www.inkscape.org/) -->

<svg
   width="320"
   height="320"
   viewBox="0 0 84.666668 84.666668"
   version="1.1"
   id="svg1"
   xml:space="preserve"
   inkscape:version="1.4 (e7c3feb100, 2024-10-09)"
   sodipodi:docname="favicon (copy).svg"
   xmlns:inkscape="http://www.inkscape.org/namespaces/inkscape"
   xmlns:sodipodi="http://sodipodi.sourceforge.net/DTD/sodipodi-0.dtd"
   xmlns="http://www.w3.org/2000/svg"
   xmlns:svg="http://www.w3.org/2000/svg"><sodipodi:namedview
     id="namedview1"
     pagecolor="#ffffff"
     bordercolor="#999999"
     borderopacity="1"
     inkscape:showpageshadow="2"
     inkscape:pageopacity="0"
     inkscape:pagecheckerboard="0"
     inkscape:deskcolor="#d1d1d1"
     inkscape:document-units="mm"
     inkscape:zoom="1.496633"
     inkscape:cx="183.07762"
     inkscape:cy="70.157482"
     inkscape:window-width="1920"
     inkscape:window-height="1043"
     inkscape:window-x="1920"
     inkscape:window-y="0"
     inkscape:window-maximized="1"
     inkscape:current-layer="layer1"
     showgrid="false"
     showguides="false"><inkscape:page
       x="-90.886658"
       y="144.68874"
       width="228.01601"
       height="228.01601"
       id="page2"
       margin="0"
       bleed="0" /></sodipodi:namedview><defs
     id="defs1" /><g
     inkscape:label="Layer 1"
     inkscape:groupmode="layer"
     id="layer1"
     transform="translate(51.036581,-491.42194)"><rect
       style="fill:none;stroke:none;stroke-width:0.264583"
       id="rect2"
       width="84.402084"
       height="84.402084"
       x="-50.904289"
       y="491.55423" /><rect
       style="fill:none;stroke:none;stroke-width:0.264583"
       id="rect1"
       width="8.2020845"
       height="8.2020826"
       x="-50.904289"
       y="494.58725" /><circle
       style="fill:none;stroke:none;stroke-width:0.264583"
       id="path8"
       cx="13.584696"
       cy="791.61865"
       r="155.50793" /><g
       id="g1"
       transform="matrix(0.3111079,0,0,0.3111079,-41.210712,465.31965)"
       style="stroke-width:3.21432"><g
         style="overflow:hidden;fill:currentColor;stroke-width:83.4397"
         id="g2"
         transform="matrix(0.32761783,0,0,0.32761783,-63.505365,51.644274)"><path
           d="m 301.5,833.4 c 122.3,56.8 229.1,27.8 347.9,-21 120.2,-49.3 198.3,-135.7 239,-259 17.2,-52 16.9,-104 10.2,-157.5 -3.6,-28 -8.4,-56.3 -21.4,-78.8 -22.6,22.3 -65.4,30 -93,34.2 -35.4,5.3 -72.6,-14.9 -95.8,-41.6 -1.4,-0.7 -2.7,-1.6 -3.8,-2.7 -2.1,3 -4.3,6.2 -7.1,9.6 6.7,4.3 9.9,13.2 2.3,19.8 -85.8,73.7 -21,191.8 -70.6,283.1 -33.4,61.5 -91.8,107.8 -157.9,129.6 -119.5,39.4 -240.9,-9.2 -310.2,-104.6 2.4,10.4 5.1,21 8.3,31.5 0.2,0.8 0.5,1.5 0.7,2.3 l 0.9,3 c 0.2,0.5 0.3,1 0.5,1.5 5.2,16 11.7,31.6 20.2,46.1 30.7,51.9 76.1,79.7 129.8,104.5 z"
           fill="#a6c285"
           id="path1"
           style="stroke-width:83.4397" /><path
           d="m 650.7,810.1 c 120.2,-49.3 198.3,-135.7 239,-259 17.2,-52 16.9,-104 10.2,-157.5 -2.5,-19.7 -11.7,-69.6 -17.9,-87.5 -19.7,15.4 -54.8,32.6 -72.8,32.9 -11,0.1 -23.3,7.6 -34.8,0.9 -19.7,0.1 -39.4,3.1 -56.5,-8 -4.5,6.1 -8.7,13.5 -18.1,21.5 -35,30 -52.4,70.6 -55.1,116.4 -2.3,37.7 8.5,75.8 1.3,113.5 -7.9,41 -33.1,78.8 -62.9,107.3 -49.5,47.5 -110.4,68 -170.1,66.1 -89.7,15.3 -221,-66.5 -283,-127.9 8.2,32.5 18.7,83.8 36.6,112.8 26.1,25.1 71.5,67.3 106.4,83.5 122.2,56.9 258.9,33.8 377.7,-15 z"
           fill="#6c9a35"
           id="path2"
           style="stroke-width:83.4397" /><path
           d="m 906.4,359.5 c -6.6,-40.8 -17.8,-75.9 -47.3,-97.6 8.4,17.9 13.4,38.6 17,61.1 23.6,144.1 -21.7,301.5 -137.3,397.7 -57.8,48.1 -130.3,75 -200.8,98.5 -82.4,27.6 -156,44.9 -240.1,15.8 -3.6,-1.2 -7.2,-2.5 -10.7,-3.8 19.6,9.2 39.7,17.1 59.4,23.9 81.4,28.2 152.6,11.5 232.4,-15.2 68.2,-22.8 138.4,-48.8 194.3,-95.4 112.1,-93.1 155.9,-245.5 133.1,-385 z"
           fill="#53801e"
           id="path3"
           style="stroke-width:83.4397" /><path
           d="m 684.3,288.8 c -7.9,7.3 -3.4,17.1 4,21 23.2,26.6 60.4,46.9 95.8,41.6 27.6,-4.3 70.4,-12 93,-34.2 13,22.5 17.9,50.8 21.4,78.8 6.8,53.5 7,105.5 -10.2,157.5 -40.7,123.3 -118.8,209.8 -239,259 -118.8,48.8 -225.5,77.8 -347.9,21 -53.7,-24.9 -99,-52.6 -129.7,-104.6 -15.3,-25.9 -24,-55.8 -30.7,-84.3 69.3,95.3 190.7,144 310.2,104.6 66.1,-21.8 124.5,-68.1 157.9,-129.6 49.6,-91.3 -15.2,-209.4 70.6,-283.1 13.3,-11.5 -6.6,-30.2 -19.9,-18.8 -36.1,31 -54.1,73 -57,120.2 -2.4,39 8.8,78.3 1.3,117.3 -8.2,42.4 -34.2,81.4 -65,110.9 C 404.3,795.6 187.6,730.5 127,560.8 c -4,-11.1 -17.2,-11.1 -23.5,-5 -4.3,3 -7.1,8.1 -5.7,14.5 16.9,74.5 25.8,147.2 76.7,207.9 42.5,50.6 107.9,81.6 169.3,102.8 84.1,29.1 157.6,11.8 240.1,-15.8 70.5,-23.6 143,-50.5 200.8,-98.5 C 900.3,670.5 945.5,513.1 922,369 c -8.5,-52.7 -24.4,-96.1 -75.3,-114.9 0,0 -35.8,-11.1 -78.6,-3.4 -37.7,6.6 -76,30.9 -83.8,38.1 z m 88.6,36.6 c -18.8,0.2 -41.5,-12.9 -57.2,-27 27.7,-19.4 66.8,-29.1 98.8,-23.3 19.2,3.4 33.6,10.7 44.8,20.3 -17.6,18.4 -66.2,29.8 -86.4,30 z m 0,0"
           fill="#333333"
           id="path4"
           style="stroke-width:83.4397" /><path
           d="m 928.1,444.1 c -0.1,81.3 -21.5,162.7 -64.4,231.6 43.7,-68.6 65.1,-150.3 64.4,-231.6 z"
           fill="#ffa097"
           id="path5"
           style="stroke-width:83.4397" /><path
           d="m 773.2,325.2 c -18.8,0.2 -41.5,-12.9 -57.2,-27 27.7,-19.4 66.8,-29.1 98.8,-23.3 19.2,3.4 33.6,10.7 44.8,20.3 -17.6,18.4 -66.2,29.7 -86.4,30 z m 0,0"
           fill="#7eb35e"
           id="path6"
           style="stroke-width:83.4397" /><path
           d="m 817.5,146.9 c 5.3,45.3 -9.3,107.5 -44.2,137.7 -13.3,11.5 3.8,32.8 17.2,21.3 43.1,-37.4 60.6,-107.5 54.1,-163 -2.2,-17.7 -29.2,-13.5 -27.1,4 z m 0,0"
           fill="#73ba2d"
           id="path7"
           style="fill:#333333;fill-opacity:1;stroke-width:83.4397" /></g></g></g></svg>
