<svg class="svg-icon" style="width: 1em; height: 1em;vertical-align: middle;fill: currentColor;overflow: hidden;" viewBox="0 0 1024 1024" version="1.1" xmlns="http://www.w3.org/2000/svg"><path d="M301.5 833.4c122.3 56.8 229.1 27.8 347.9-21 120.2-49.3 198.3-135.7 239-259 17.2-52 16.9-104 10.2-157.5-3.6-28-8.4-56.3-21.4-78.8-22.6 22.3-65.4 30-93 34.2-35.4 5.3-72.6-14.9-95.8-41.6-1.4-0.7-2.7-1.6-3.8-2.7-2.1 3-4.3 6.2-7.1 9.6 6.7 4.3 9.9 13.2 2.3 19.8-85.8 73.7-21 191.8-70.6 283.1-33.4 61.5-91.8 107.8-157.9 129.6-119.5 39.4-240.9-9.2-310.2-104.6 2.4 10.4 5.1 21 8.3 31.5 0.2 0.8 0.5 1.5 0.7 2.3l0.9 3c0.2 0.5 0.3 1 0.5 1.5 5.2 16 11.7 31.6 20.2 46.1 30.7 51.9 76.1 79.7 129.8 104.5z" fill="#A6C285" /><path d="M650.7 810.1c120.2-49.3 198.3-135.7 239-259 17.2-52 16.9-104 10.2-157.5-2.5-19.7-11.7-69.6-17.9-87.5-19.7 15.4-54.8 32.6-72.8 32.9-11 0.1-23.3 7.6-34.8 0.9-19.7 0.1-39.4 3.1-56.5-8-4.5 6.1-8.7 13.5-18.1 21.5-35 30-52.4 70.6-55.1 116.4-2.3 37.7 8.5 75.8 1.3 113.5-7.9 41-33.1 78.8-62.9 107.3-49.5 47.5-110.4 68-170.1 66.1-89.7 15.3-221-66.5-283-127.9 8.2 32.5 18.7 83.8 36.6 112.8 26.1 25.1 71.5 67.3 106.4 83.5 122.2 56.9 258.9 33.8 377.7-15z" fill="#6C9A35" /><path d="M906.4 359.5c-6.6-40.8-17.8-75.9-47.3-97.6 8.4 17.9 13.4 38.6 17 61.1 23.6 144.1-21.7 301.5-137.3 397.7-57.8 48.1-130.3 75-200.8 98.5-82.4 27.6-156 44.9-240.1 15.8-3.6-1.2-7.2-2.5-10.7-3.8 19.6 9.2 39.7 17.1 59.4 23.9 81.4 28.2 152.6 11.5 232.4-15.2 68.2-22.8 138.4-48.8 194.3-95.4 112.1-93.1 155.9-245.5 133.1-385z" fill="#53801E" /><path d="M684.3 288.8c-7.9 7.3-3.4 17.1 4 21 23.2 26.6 60.4 46.9 95.8 41.6 27.6-4.3 70.4-12 93-34.2 13 22.5 17.9 50.8 21.4 78.8 6.8 53.5 7 105.5-10.2 157.5-40.7 123.3-118.8 209.8-239 259-118.8 48.8-225.5 77.8-347.9 21-53.7-24.9-99-52.6-129.7-104.6-15.3-25.9-24-55.8-30.7-84.3 69.3 95.3 190.7 144 310.2 104.6 66.1-21.8 124.5-68.1 157.9-129.6 49.6-91.3-15.2-209.4 70.6-283.1 13.3-11.5-6.6-30.2-19.9-18.8-36.1 31-54.1 73-57 120.2-2.4 39 8.8 78.3 1.3 117.3-8.2 42.4-34.2 81.4-65 110.9C404.3 795.6 187.6 730.5 127 560.8c-4-11.1-17.2-11.1-23.5-5-4.3 3-7.1 8.1-5.7 14.5 16.9 74.5 25.8 147.2 76.7 207.9C217 828.8 282.4 859.8 343.8 881c84.1 29.1 157.6 11.8 240.1-15.8 70.5-23.6 143-50.5 200.8-98.5C900.3 670.5 945.5 513.1 922 369c-8.5-52.7-24.4-96.1-75.3-114.9 0 0-35.8-11.1-78.6-3.4-37.7 6.6-76 30.9-83.8 38.1z m88.6 36.6c-18.8 0.2-41.5-12.9-57.2-27 27.7-19.4 66.8-29.1 98.8-23.3 19.2 3.4 33.6 10.7 44.8 20.3-17.6 18.4-66.2 29.8-86.4 30z m0 0" fill="#333333" /><path d="M928.1 444.1c-0.1 81.3-21.5 162.7-64.4 231.6 43.7-68.6 65.1-150.3 64.4-231.6z" fill="#FFA097" /><path d="M773.2 325.2c-18.8 0.2-41.5-12.9-57.2-27 27.7-19.4 66.8-29.1 98.8-23.3 19.2 3.4 33.6 10.7 44.8 20.3-17.6 18.4-66.2 29.7-86.4 30z m0 0" fill="#7EB35E" /><path d="M817.5 146.9c5.3 45.3-9.3 107.5-44.2 137.7-13.3 11.5 3.8 32.8 17.2 21.3 43.1-37.4 60.6-107.5 54.1-163-2.2-17.7-29.2-13.5-27.1 4z m0 0" fill="#73BA2D" /></svg>